<?xml version="1.0" encoding="UTF-8"?>
<!DOCTYPE svg PUBLIC "-//W3C//DTD SVG 1.1//EN" "http://www.w3.org/Graphics/SVG/1.1/DTD/svg11.dtd">
<svg viewBox="50 100 1200 400" width="100px" height="36px" xmlns="http://www.w3.org/2000/svg" version="1.1" style="shape-rendering:geometricPrecision; text-rendering:geometricPrecision; image-rendering:optimizeQuality; fill-rule:evenodd; clip-rule:evenodd" xmlns:xlink="http://www.w3.org/1999/xlink">
<g><path style="opacity:0.983" fill="#febe00" d="M 992.5,182.5 C 1029.8,180.156 1063.8,189.323 1094.5,210C 1101.83,216 1109.17,222 1116.5,228C 1117.45,228.718 1117.62,229.551 1117,230.5C 1110.64,236.528 1104.31,242.528 1098,248.5C 1066.01,216.437 1027.51,203.604 982.5,210C 935.182,221.97 907.182,251.97 898.5,300C 897.538,355.305 923.538,391.972 976.5,410C 1007.3,418.255 1036.63,414.922 1064.5,400C 1081.49,388.858 1093.32,373.692 1100,354.5C 1101.1,349.946 1102.26,345.446 1103.5,341C 1077.5,340.5 1051.5,340.333 1025.5,340.5C 1025.5,331.833 1025.5,323.167 1025.5,314.5C 1060.83,314.333 1096.17,314.5 1131.5,315C 1133.39,352.66 1120.72,384.66 1093.5,411C 1069.04,431.133 1040.87,440.633 1009,439.5C 951.226,439.292 908.893,413.958 882,363.5C 860.106,305.286 871.606,255.119 916.5,213C 938.652,194.997 963.985,184.83 992.5,182.5 Z"/></g>
<g><path style="opacity:0.953" fill="#090909" d="M 566.5,185.5 C 574.833,185.5 583.167,185.5 591.5,185.5C 591.5,207.5 591.5,229.5 591.5,251.5C 603.833,251.5 616.167,251.5 628.5,251.5C 628.5,258.833 628.5,266.167 628.5,273.5C 616.167,273.5 603.833,273.5 591.5,273.5C 591.5,326.833 591.5,380.167 591.5,433.5C 583.167,433.5 574.833,433.5 566.5,433.5C 566.5,380.167 566.5,326.833 566.5,273.5C 556.167,273.5 545.833,273.5 535.5,273.5C 535.5,266.167 535.5,258.833 535.5,251.5C 545.833,251.5 556.167,251.5 566.5,251.5C 566.5,229.5 566.5,207.5 566.5,185.5 Z"/></g>
<g><path style="opacity:0.979" fill="#090909" d="M 80.5,188.5 C 125.5,188.5 170.5,188.5 215.5,188.5C 215.5,196.833 215.5,205.167 215.5,213.5C 197.5,213.5 179.5,213.5 161.5,213.5C 161.5,286.833 161.5,360.167 161.5,433.5C 152.5,433.5 143.5,433.5 134.5,433.5C 134.5,360.167 134.5,286.833 134.5,213.5C 116.5,213.5 98.5,213.5 80.5,213.5C 80.5,205.167 80.5,196.833 80.5,188.5 Z"/></g>
<g><path style="opacity:0.173" fill="#d6560c" d="M 648.5,189.5 C 648.5,270.5 648.5,351.5 648.5,432.5C 657.167,432.5 665.833,432.5 674.5,432.5C 673.828,433.267 672.995,433.934 672,434.5C 664.241,433.97 656.407,433.637 648.5,433.5C 647.168,352.001 647.168,270.668 648.5,189.5 Z"/></g>
<g><path style="opacity:0.998" fill="#c51514" d="M 674.5,432.5 C 665.833,432.5 657.167,432.5 648.5,432.5C 648.5,351.5 648.5,270.5 648.5,189.5C 651.143,188.021 653.643,188.354 656,190.5C 709.091,251.848 762.091,313.182 815,374.5C 815.5,312.501 815.667,250.501 815.5,188.5C 823.833,188.5 832.167,188.5 840.5,188.5C 840.833,270.169 840.5,351.836 839.5,433.5C 838.284,434.002 837.117,434.335 836,434.5C 833.683,432.684 831.516,430.684 829.5,428.5C 777.908,369.122 726.408,310.122 675,251.5C 674.5,311.832 674.333,372.166 674.5,432.5 Z"/></g>
<g><path style="opacity:0.972" fill="#0a0a09" d="M 302.5,247.5 C 345.997,244.56 377.83,262.227 398,300.5C 403.842,314.562 406.675,329.228 406.5,344.5C 352.833,344.5 299.167,344.5 245.5,344.5C 245.833,378.971 262.167,401.804 294.5,413C 333.382,419.639 362.216,405.806 381,371.5C 386.706,375.68 392.873,379.014 399.5,381.5C 400.314,383.952 399.814,386.285 398,388.5C 375.248,426.23 341.748,442.396 297.5,437C 254.109,427.719 228.609,401.219 221,357.5C 216.321,318.141 229.821,286.308 261.5,262C 267.888,258.139 274.554,254.806 281.5,252C 288.562,250.13 295.562,248.63 302.5,247.5 Z M 308.5,269.5 C 334.717,269.359 355.55,279.692 371,300.5C 374.662,307.494 377.495,314.828 379.5,322.5C 335.5,323.833 291.5,323.833 247.5,322.5C 256.207,291.391 276.54,273.725 308.5,269.5 Z"/></g>
<g><path style="opacity:0.971" fill="#0b0a09" d="M 465.5,247.5 C 488.484,247.162 507.817,255.329 523.5,272C 519.042,277.791 513.875,282.958 508,287.5C 501.048,281.894 493.548,277.06 485.5,273C 469.633,266.858 456.8,270.691 447,284.5C 444.318,293.347 445.318,301.68 450,309.5C 460.977,320.067 473.477,328.234 487.5,334C 499.231,340.404 509.064,348.904 517,359.5C 529.694,389.073 522.861,412.906 496.5,431C 472.396,441.272 449.396,439.272 427.5,425C 422.685,421.352 418.352,417.185 414.5,412.5C 419.183,406.321 424.349,400.654 430,395.5C 439.823,406.997 452.323,413.664 467.5,415.5C 484.393,414.314 495.227,405.648 500,389.5C 500.631,381.728 498.631,374.728 494,368.5C 491.131,365.296 487.965,362.463 484.5,360C 474.327,354.079 463.994,348.413 453.5,343C 424.219,326.065 416.052,301.898 429,270.5C 437.951,257.391 450.117,249.724 465.5,247.5 Z"/></g>
</svg>
